<?xml version="1.0" encoding="UTF-8" standalone="no"?>
<!-- Created with Inkscape (http://www.inkscape.org/) -->

<svg
   xmlns:dc="http://purl.org/dc/elements/1.1/"
   xmlns:cc="http://creativecommons.org/ns#"
   xmlns:rdf="http://www.w3.org/1999/02/22-rdf-syntax-ns#"
   xmlns:svg="http://www.w3.org/2000/svg"
   xmlns="http://www.w3.org/2000/svg"
   xmlns:sodipodi="http://sodipodi.sourceforge.net/DTD/sodipodi-0.dtd"
   xmlns:inkscape="http://www.inkscape.org/namespaces/inkscape"
   width="12.8cm"
   height="9.6000004cm"
   viewBox="0 0 453.5433 340.15749"
   id="svg2"
   version="1.1"
   inkscape:version="0.91 r"
   sodipodi:docname="bg_1st_page.svg">
  <defs
     id="defs4" />
  <sodipodi:namedview
     id="base"
     pagecolor="#ffffff"
     bordercolor="#666666"
     borderopacity="1.0"
     inkscape:pageopacity="0.0"
     inkscape:pageshadow="2"
     inkscape:zoom="0.49497475"
     inkscape:cx="-59.719207"
     inkscape:cy="170.53843"
     inkscape:document-units="px"
     inkscape:current-layer="layer1"
     showgrid="false"
     inkscape:window-width="1198"
     inkscape:window-height="556"
     inkscape:window-x="1600"
     inkscape:window-y="353"
     inkscape:window-maximized="0"
     units="cm" />
  <metadata
     id="metadata7">
    <rdf:RDF>
      <cc:Work
         rdf:about="">
        <dc:format>image/svg+xml</dc:format>
        <dc:type
           rdf:resource="http://purl.org/dc/dcmitype/StillImage" />
        <dc:title />
      </cc:Work>
    </rdf:RDF>
  </metadata>
  <g
     inkscape:label="Layer 1"
     inkscape:groupmode="layer"
     id="layer1"
     transform="translate(0,-712.20473)">
    <g
       id="g4235"
       transform="matrix(0.07189175,0,0,-0.07189175,-0.71535476,1058.2936)"
       style="fill:#5087ce;fill-opacity:1">
      <path
         d="m 680.566,464.309 42.332,0 0,-12.239 -26.984,0 0,-22.785 25.785,0 0,-12.23 -25.785,0 0,-36.457 -15.348,0 0,83.711"
         style="fill:#5087ce;fill-opacity:1;fill-rule:nonzero;stroke:none"
         id="path4237"
         inkscape:connector-curvature="0" />
      <path
         d="m 756.449,390.191 c 9.602,0 11.758,11.036 11.758,21.348 0,10.313 -2.156,21.231 -11.758,21.231 -9.586,0 -11.863,-10.918 -11.863,-21.231 0,-10.312 2.277,-21.348 11.863,-21.348 z m 0,53.129 c 12.594,0 27.11,-6.597 27.11,-31.781 0,-25.902 -14.516,-31.906 -27.11,-31.906 -12.586,0 -27.215,6.004 -27.215,31.906 0,25.184 14.629,31.781 27.215,31.781"
         style="fill:#5087ce;fill-opacity:1;fill-rule:nonzero;stroke:none"
         id="path4239"
         inkscape:connector-curvature="0" />
      <path
         d="m 820.824,390.191 c 9.602,0 11.758,11.036 11.758,21.348 0,10.313 -2.156,21.231 -11.758,21.231 -9.586,0 -11.863,-10.918 -11.863,-21.231 0,-10.312 2.277,-21.348 11.863,-21.348 z m 0,53.129 c 12.594,0 27.11,-6.597 27.11,-31.781 0,-25.902 -14.516,-31.906 -27.11,-31.906 -12.586,0 -27.215,6.004 -27.215,31.906 0,25.184 14.629,31.781 27.215,31.781"
         style="fill:#5087ce;fill-opacity:1;fill-rule:nonzero;stroke:none"
         id="path4241"
         inkscape:connector-curvature="0" />
      <path
         d="m 883.766,390.551 c 8.754,0 11.746,9.472 11.746,21.109 0,11.992 -3.36,20.746 -11.512,20.746 -8.277,0 -11.145,-8.035 -11.145,-20.39 0,-14.274 2.282,-21.465 10.911,-21.465 z m 26.621,79.992 0,-79.395 c 0,-4.433 0.121,-8.273 0.476,-10.55 l -13.906,0 c -0.242,1.797 -0.477,5.394 -0.477,9.593 l -0.367,0 c -2.39,-5.281 -6.832,-10.558 -16.429,-10.558 -15.348,0 -21.7,14.637 -21.7,31.789 0,20.144 8.032,31.898 21.34,31.898 8.879,0 13.797,-5.035 15.953,-9.836 l 0.235,0 0,37.059 14.875,0"
         style="fill:#5087ce;fill-opacity:1;fill-rule:nonzero;stroke:none"
         id="path4243"
         inkscape:connector-curvature="0" />
      <path
         d="m 987.465,410.82 -1.32,0 c -12.715,0 -20.27,-2.64 -20.27,-11.636 0,-5.633 3.727,-9.473 9.477,-9.473 8.878,0 12.113,6.598 12.113,17.629 l 0,3.48 z m -29.266,27.946 c 4.203,1.918 10.078,4.554 19.555,4.554 19.187,0 23.626,-9.355 23.626,-24.824 l 0,-26.988 c 0,-4.438 0.48,-8.516 0.84,-10.91 l -13.443,0 c -0.711,2.394 -0.832,5.394 -0.832,8.39 l -0.246,0 c -3.715,-5.035 -8.386,-9.355 -17.265,-9.355 -9.598,0 -18.465,6.597 -18.465,18.109 0,16.793 13.672,20.992 32.496,20.992 l 3,0 0,2.282 c 0,6.113 -3,11.754 -11.512,11.754 -7.441,0 -14.027,-3.598 -16.91,-5.997 l -0.844,11.993"
         style="fill:#5087ce;fill-opacity:1;fill-rule:nonzero;stroke:none"
         id="path4245"
         inkscape:connector-curvature="0" />
      <path
         d="m 1015.14,432.168 c 0,3.84 -0.12,7.437 -0.48,10.195 l 13.91,0 c 0.12,-3.121 0.48,-6.355 0.48,-9.476 l 0.24,0 c 2.16,3.718 6.35,10.433 16.43,10.433 14.03,0 18.24,-10.433 18.24,-22.906 l 0,-39.816 -14.88,0 0,37.058 c 0,9.473 -2.4,13.434 -8.52,13.434 -7.79,0 -10.55,-6.598 -10.55,-14.512 l 0,-35.98 -14.87,0 0,51.57"
         style="fill:#5087ce;fill-opacity:1;fill-rule:nonzero;stroke:none"
         id="path4247"
         inkscape:connector-curvature="0" />
      <path
         d="m 1101.46,390.551 c 8.76,0 11.75,9.472 11.75,21.109 0,11.992 -3.36,20.746 -11.51,20.746 -8.28,0 -11.15,-8.035 -11.15,-20.39 0,-14.274 2.28,-21.465 10.91,-21.465 z m 26.63,79.992 0,-79.395 c 0,-4.433 0.12,-8.273 0.47,-10.55 l -13.9,0 c -0.25,1.797 -0.48,5.394 -0.48,9.593 l -0.37,0 c -2.39,-5.281 -6.83,-10.558 -16.43,-10.558 -15.35,0 -21.7,14.637 -21.7,31.789 0,20.144 8.03,31.898 21.35,31.898 8.87,0 13.79,-5.035 15.95,-9.836 l 0.23,0 0,37.059 14.88,0"
         style="fill:#5087ce;fill-opacity:1;fill-rule:nonzero;stroke:none"
         id="path4249"
         inkscape:connector-curvature="0" />
      <path
         d="m 1207.2,412.5 -10.55,39.094 -0.24,0 -11.51,-39.094 22.3,0 z m 3.23,-11.754 -28.77,0 -6,-20.148 -15.35,0 28.07,83.711 16.78,0 26.99,-83.711 -15.83,0 -5.89,20.148"
         style="fill:#5087ce;fill-opacity:1;fill-rule:nonzero;stroke:none"
         id="path4251"
         inkscape:connector-curvature="0" />
      <path
         d="m 1262.93,391.508 c 9.36,0 13.07,6.719 13.07,20.754 0,12.949 -4.92,19.906 -11.99,19.785 -7.79,-0.117 -10.79,-7.317 -10.79,-19.906 0,-14.512 4.67,-20.633 9.71,-20.633 z M 1241.46,371 c 3.49,-1.918 10.44,-5.277 18.24,-5.277 14.02,0 16.3,9.715 16.3,19.429 l 0,5.879 -0.23,0 c -2.41,-4.801 -6.6,-10.433 -16.32,-10.433 -8.63,0 -21.58,5.754 -21.58,30.703 0,17.027 6.12,32.019 22.31,32.019 8.99,0 13.18,-5.156 16.3,-10.55 l 0.48,0 c 0,3.238 0.36,6.355 0.49,9.593 l 13.42,0 c -0.23,-3.238 -0.47,-6.48 -0.47,-9.718 l 0,-45.575 c 0,-19.304 -5.88,-33.093 -28.55,-33.093 -9.83,0 -17.63,2.515 -21.22,3.836 l 0.83,13.187"
         style="fill:#5087ce;fill-opacity:1;fill-rule:nonzero;stroke:none"
         id="path4253"
         inkscape:connector-curvature="0" />
      <path
         d="m 1304.4,432.168 c 0,3.84 -0.12,7.437 -0.47,10.195 l 13.42,0 c 0.13,-3.718 0.48,-7.558 0.48,-11.273 l 0.25,0 c 1.8,4.793 6.47,12.23 15.7,12.23 0.97,0 1.68,-0.238 2.52,-0.355 l 0,-13.918 c -1.32,0.363 -2.64,0.601 -4.2,0.601 -6.12,0 -12.82,-3.714 -12.82,-15.23 l 0,-33.82 -14.88,0 0,51.57"
         style="fill:#5087ce;fill-opacity:1;fill-rule:nonzero;stroke:none"
         id="path4255"
         inkscape:connector-curvature="0" />
      <path
         d="m 1347.55,442.363 14.88,0 0,-61.765 -14.88,0 0,61.765 z m -0.23,26.258 15.35,0 0,-14.633 -15.35,0 0,14.633"
         style="fill:#5087ce;fill-opacity:1;fill-rule:nonzero;stroke:none"
         id="path4257"
         inkscape:connector-curvature="0" />
      <path
         d="m 1419.26,382.152 c -3.47,-1.316 -8.63,-2.519 -14.63,-2.519 -20.39,0 -29.02,14.273 -29.02,31.789 0,17.625 9.11,31.898 29.85,31.898 4.69,0 10.2,-1.441 12.96,-2.519 l -0.84,-11.754 c -2.64,1.32 -6.35,3 -10.44,3 -11.27,0 -16.18,-7.555 -16.18,-20.746 0,-11.516 5.51,-20.395 16.91,-20.395 3.59,0 8.51,1.684 10.55,3 l 0.84,-11.754"
         style="fill:#5087ce;fill-opacity:1;fill-rule:nonzero;stroke:none"
         id="path4259"
         inkscape:connector-curvature="0" />
      <path
         d="m 1477.17,390.793 c 0,-3.84 0.12,-7.438 0.48,-10.195 l -13.92,0 c -0.12,3.117 -0.48,6.355 -0.48,9.468 l -0.35,0.125 0.12,-0.125 c -2.88,-4.554 -6.72,-10.433 -16.43,-10.433 -14.04,0 -18.23,10.433 -18.23,22.91 l 0,39.82 14.87,0 0,-37.058 c 0,-9.481 2.64,-13.434 8.87,-13.434 7.91,0 10.19,7.195 10.19,15.109 l 0,35.383 14.88,0 0,-51.57"
         style="fill:#5087ce;fill-opacity:1;fill-rule:nonzero;stroke:none"
         id="path4261"
         inkscape:connector-curvature="0" />
      <path
         d="m 1492.01,380.598 14.8672,0 0,89.9453 -14.8672,0 0,-89.9453 z"
         style="fill:#5087ce;fill-opacity:1;fill-rule:nonzero;stroke:none"
         id="path4263"
         inkscape:connector-curvature="0" />
      <path
         d="m 1527.26,455.066 14.87,4.563 0,-17.266 12.35,0 0,-10.914 -12.35,0 0,-32.023 c 0,-6.598 2.4,-8.52 6.71,-8.52 2.64,0 4.56,0.727 5.64,1.324 l 0,-10.554 c -2.28,-1.078 -5.52,-2.043 -9.95,-2.043 -11.04,0 -17.27,5.039 -17.27,17.996 l 0,33.82 -9.83,0 0,10.914 9.83,0 0,12.703"
         style="fill:#5087ce;fill-opacity:1;fill-rule:nonzero;stroke:none"
         id="path4265"
         inkscape:connector-curvature="0" />
      <path
         d="m 1612.75,390.793 c 0,-3.84 0.11,-7.438 0.48,-10.195 l -13.92,0 c -0.12,3.117 -0.48,6.355 -0.48,9.468 l -0.35,0.125 0.12,-0.125 c -2.88,-4.554 -6.72,-10.433 -16.44,-10.433 -14.03,0 -18.22,10.433 -18.22,22.91 l 0,39.82 14.87,0 0,-37.058 c 0,-9.481 2.64,-13.434 8.87,-13.434 7.92,0 10.2,7.195 10.2,15.109 l 0,35.383 14.87,0 0,-51.57"
         style="fill:#5087ce;fill-opacity:1;fill-rule:nonzero;stroke:none"
         id="path4267"
         inkscape:connector-curvature="0" />
      <path
         d="m 1626.64,432.168 c 0,3.84 -0.13,7.437 -0.48,10.195 l 13.42,0 c 0.13,-3.718 0.48,-7.558 0.48,-11.273 l 0.25,0 c 1.8,4.793 6.47,12.23 15.7,12.23 0.97,0 1.68,-0.238 2.53,-0.355 l 0,-13.918 c -1.33,0.363 -2.64,0.601 -4.21,0.601 -6.1,0 -12.82,-3.714 -12.82,-15.23 l 0,-33.82 -14.87,0 0,51.57"
         style="fill:#5087ce;fill-opacity:1;fill-rule:nonzero;stroke:none"
         id="path4269"
         inkscape:connector-curvature="0" />
      <path
         d="m 1701.21,416.816 c 0,10.914 -3.6,16.43 -10.32,16.43 -7.79,0 -11.03,-8.273 -11.03,-16.43 l 21.35,0 z m 11.27,-33.222 c -3.11,-1.321 -9.59,-3.961 -18.47,-3.961 -19.91,0 -28.54,14.273 -28.54,30.949 0,18.465 9.71,32.738 25.42,32.738 13.31,0 24.7,-7.793 24.7,-32.984 l 0,-2.875 -35.73,0 c 0,-10.551 4.2,-16.91 15.71,-16.91 9.11,0 13.43,2.762 16.19,4.797 l 0.72,-11.754"
         style="fill:#5087ce;fill-opacity:1;fill-rule:nonzero;stroke:none"
         id="path4271"
         inkscape:connector-curvature="0" />
      <path
         d="m 1790.39,391.148 c 9.71,0 17.51,8.278 17.51,31.301 0,23.031 -7.8,31.301 -17.51,31.301 -9.71,0 -17.51,-8.27 -17.51,-31.301 0,-23.023 7.8,-31.301 17.51,-31.301 z m 0,74.356 c 17.39,0 33.34,-12.953 33.34,-43.055 0,-30.101 -15.95,-43.054 -33.34,-43.054 -17.38,0 -33.33,12.953 -33.33,43.054 0,30.102 15.95,43.055 33.33,43.055"
         style="fill:#5087ce;fill-opacity:1;fill-rule:nonzero;stroke:none"
         id="path4273"
         inkscape:connector-curvature="0" />
      <path
         d="m 1836.41,432.168 c 0,3.84 -0.12,7.437 -0.48,10.195 l 13.43,0 c 0.12,-3.718 0.48,-7.558 0.48,-11.273 l 0.24,0 c 1.8,4.793 6.48,12.23 15.71,12.23 0.97,0 1.68,-0.238 2.53,-0.355 l 0,-13.918 c -1.33,0.363 -2.64,0.601 -4.21,0.601 -6.11,0 -12.83,-3.714 -12.83,-15.23 l 0,-33.82 -14.87,0 0,51.57"
         style="fill:#5087ce;fill-opacity:1;fill-rule:nonzero;stroke:none"
         id="path4275"
         inkscape:connector-curvature="0" />
      <path
         d="m 1900.32,391.508 c 9.35,0 13.07,6.719 13.07,20.754 0,12.949 -4.92,19.906 -11.99,19.785 -7.8,-0.117 -10.79,-7.317 -10.79,-19.906 0,-14.512 4.67,-20.633 9.71,-20.633 z M 1878.85,371 c 3.48,-1.918 10.44,-5.277 18.23,-5.277 14.03,0 16.31,9.715 16.31,19.429 l 0,5.879 -0.24,0 c -2.4,-4.801 -6.59,-10.433 -16.31,-10.433 -8.63,0 -21.58,5.754 -21.58,30.703 0,17.027 6.12,32.019 22.3,32.019 9,0 13.19,-5.156 16.31,-10.55 l 0.49,0 c 0,3.238 0.35,6.355 0.47,9.593 l 13.43,0 c -0.23,-3.238 -0.48,-6.48 -0.48,-9.718 l 0,-45.575 c 0,-19.304 -5.87,-33.093 -28.54,-33.093 -9.83,0 -17.63,2.515 -21.22,3.836 l 0.83,13.187"
         style="fill:#5087ce;fill-opacity:1;fill-rule:nonzero;stroke:none"
         id="path4277"
         inkscape:connector-curvature="0" />
      <path
         d="m 1973.57,410.82 -1.32,0 c -12.71,0 -20.27,-2.64 -20.27,-11.636 0,-5.633 3.73,-9.473 9.48,-9.473 8.87,0 12.11,6.598 12.11,17.629 l 0,3.48 z m -29.26,27.946 c 4.2,1.918 10.07,4.554 19.55,4.554 19.19,0 23.63,-9.355 23.63,-24.824 l 0,-26.988 c 0,-4.438 0.47,-8.516 0.83,-10.91 l -13.44,0 c -0.71,2.394 -0.83,5.394 -0.83,8.39 l -0.25,0 c -3.71,-5.035 -8.38,-9.355 -17.26,-9.355 -9.6,0 -18.46,6.597 -18.46,18.109 0,16.793 13.67,20.992 32.49,20.992 l 3,0 0,2.282 c 0,6.113 -3,11.754 -11.51,11.754 -7.44,0 -14.03,-3.598 -16.91,-5.997 l -0.84,11.993"
         style="fill:#5087ce;fill-opacity:1;fill-rule:nonzero;stroke:none"
         id="path4279"
         inkscape:connector-curvature="0" />
      <path
         d="m 2001.25,432.168 c 0,3.84 -0.12,7.437 -0.48,10.195 l 13.91,0 c 0.12,-3.121 0.48,-6.355 0.48,-9.476 l 0.24,0 c 2.16,3.718 6.35,10.433 16.43,10.433 14.02,0 18.23,-10.433 18.23,-22.906 l 0,-39.816 -14.87,0 0,37.058 c 0,9.473 -2.41,13.434 -8.52,13.434 -7.79,0 -10.55,-6.598 -10.55,-14.512 l 0,-35.98 -14.87,0 0,51.57"
         style="fill:#5087ce;fill-opacity:1;fill-rule:nonzero;stroke:none"
         id="path4281"
         inkscape:connector-curvature="0" />
      <path
         d="m 2064.9,442.363 14.88,0 0,-61.765 -14.88,0 0,61.765 z m -0.23,26.258 15.35,0 0,-14.633 -15.35,0 0,14.633"
         style="fill:#5087ce;fill-opacity:1;fill-rule:nonzero;stroke:none"
         id="path4283"
         inkscape:connector-curvature="0" />
      <path
         d="m 2091.28,393.43 26.38,37.66 -25.55,0 0,11.273 40.42,0 0,-12.715 -25.9,-37.777 26.74,0 0,-11.273 -42.09,0 0,12.832"
         style="fill:#5087ce;fill-opacity:1;fill-rule:nonzero;stroke:none"
         id="path4285"
         inkscape:connector-curvature="0" />
      <path
         d="m 2175.68,410.82 -1.32,0 c -12.7,0 -20.26,-2.64 -20.26,-11.636 0,-5.633 3.71,-9.473 9.47,-9.473 8.88,0 12.11,6.598 12.11,17.629 l 0,3.48 z m -29.26,27.946 c 4.21,1.918 10.08,4.554 19.55,4.554 19.19,0 23.63,-9.355 23.63,-24.824 l 0,-26.988 c 0,-4.438 0.48,-8.516 0.83,-10.91 l -13.42,0 c -0.73,2.394 -0.85,5.394 -0.85,8.39 l -0.24,0 c -3.72,-5.035 -8.39,-9.355 -17.26,-9.355 -9.6,0 -18.47,6.597 -18.47,18.109 0,16.793 13.67,20.992 32.49,20.992 l 3,0 0,2.282 c 0,6.113 -3,11.754 -11.51,11.754 -7.44,0 -14.03,-3.598 -16.9,-5.997 l -0.85,11.993"
         style="fill:#5087ce;fill-opacity:1;fill-rule:nonzero;stroke:none"
         id="path4287"
         inkscape:connector-curvature="0" />
      <path
         d="m 2208.88,455.066 14.87,4.563 0,-17.266 12.35,0 0,-10.914 -12.35,0 0,-32.023 c 0,-6.598 2.39,-8.52 6.71,-8.52 2.64,0 4.56,0.727 5.64,1.324 l 0,-10.554 c -2.28,-1.078 -5.52,-2.043 -9.96,-2.043 -11.03,0 -17.26,5.039 -17.26,17.996 l 0,33.82 -9.83,0 0,10.914 9.83,0 0,12.703"
         style="fill:#5087ce;fill-opacity:1;fill-rule:nonzero;stroke:none"
         id="path4289"
         inkscape:connector-curvature="0" />
      <path
         d="m 2246.99,442.363 14.88,0 0,-61.765 -14.88,0 0,61.765 z m -0.23,26.258 15.35,0 0,-14.633 -15.35,0 0,14.633"
         style="fill:#5087ce;fill-opacity:1;fill-rule:nonzero;stroke:none"
         id="path4291"
         inkscape:connector-curvature="0" />
      <path
         d="m 2302.27,390.191 c 9.6,0 11.75,11.036 11.75,21.348 0,10.313 -2.15,21.231 -11.75,21.231 -9.59,0 -11.87,-10.918 -11.87,-21.231 0,-10.312 2.28,-21.348 11.87,-21.348 z m 0,53.129 c 12.59,0 27.11,-6.597 27.11,-31.781 0,-25.902 -14.52,-31.906 -27.11,-31.906 -12.6,0 -27.22,6.004 -27.22,31.906 0,25.184 14.62,31.781 27.22,31.781"
         style="fill:#5087ce;fill-opacity:1;fill-rule:nonzero;stroke:none"
         id="path4293"
         inkscape:connector-curvature="0" />
      <path
         d="m 2341.1,432.168 c 0,3.84 -0.12,7.437 -0.47,10.195 l 13.9,0 c 0.12,-3.121 0.47,-6.355 0.47,-9.476 l 0.25,0 c 2.16,3.718 6.35,10.433 16.43,10.433 14.03,0 18.23,-10.433 18.23,-22.906 l 0,-39.816 -14.87,0 0,37.058 c 0,9.473 -2.4,13.434 -8.52,13.434 -7.79,0 -10.55,-6.598 -10.55,-14.512 l 0,-35.98 -14.87,0 0,51.57"
         style="fill:#5087ce;fill-opacity:1;fill-rule:nonzero;stroke:none"
         id="path4295"
         inkscape:connector-curvature="0" />
      <path
         d="m 703.945,254.684 c 9.602,0 11.758,11.035 11.758,21.347 0,10.313 -2.156,21.227 -11.758,21.227 -9.59,0 -11.871,-10.914 -11.871,-21.227 0,-10.312 2.281,-21.347 11.871,-21.347 z m 0,53.125 c 12.594,0 27.11,-6.598 27.11,-31.778 0,-25.902 -14.516,-31.906 -27.11,-31.906 -12.593,0 -27.215,6.004 -27.215,31.906 0,25.18 14.622,31.778 27.215,31.778"
         style="fill:#5087ce;fill-opacity:1;fill-rule:nonzero;stroke:none"
         id="path4297"
         inkscape:connector-curvature="0" />
      <path
         d="m 747.574,295.938 -10.308,0 0,10.914 10.308,0 0,12.589 c 0,8.875 4.196,17.036 17.754,17.036 3.949,0 7.785,-0.84 10.668,-1.442 l -0.601,-10.797 c -1.79,0.481 -3.715,0.961 -5.875,0.961 -4.317,0 -7.075,-2.996 -7.075,-7.676 l 0,-10.671 11.27,0 0,-10.914 -11.27,0 0,-50.848 -14.871,0 0,50.848"
         style="fill:#5087ce;fill-opacity:1;fill-rule:nonzero;stroke:none"
         id="path4299"
         inkscape:connector-curvature="0" />
      <path
         d="m 819.379,319.563 14.875,4.558 0,-17.269 12.348,0 0,-10.914 -12.348,0 0,-32.02 c 0,-6.598 2.391,-8.52 6.707,-8.52 2.637,0 4.562,0.723 5.641,1.325 l 0,-10.555 c -2.282,-1.078 -5.516,-2.043 -9.957,-2.043 -11.036,0 -17.266,5.039 -17.266,17.992 l 0,33.821 -9.832,0 0,10.914 9.832,0 0,12.711"
         style="fill:#5087ce;fill-opacity:1;fill-rule:nonzero;stroke:none"
         id="path4301"
         inkscape:connector-curvature="0" />
      <path
         d="m 856.059,335.035 14.875,0 0,-36.097 0.355,0 c 2.633,3.835 6.113,8.871 15.348,8.871 14.027,0 18.23,-10.438 18.23,-22.903 l 0,-39.816 -14.871,0 0,37.058 c 0,9.469 -2.402,13.426 -8.519,13.426 -7.786,0 -10.543,-6.594 -10.543,-14.504 l 0,-35.98 -14.875,0 0,89.945"
         style="fill:#5087ce;fill-opacity:1;fill-rule:nonzero;stroke:none"
         id="path4303"
         inkscape:connector-curvature="0" />
      <path
         d="m 952.336,281.309 c 0,10.91 -3.606,16.425 -10.324,16.425 -7.782,0 -11.02,-8.277 -11.02,-16.425 l 21.344,0 z m 11.269,-33.223 c -3.117,-1.316 -9.589,-3.961 -18.468,-3.961 -19.907,0 -28.539,14.273 -28.539,30.949 0,18.461 9.711,32.735 25.414,32.735 13.316,0 24.707,-7.793 24.707,-32.981 l 0,-2.875 -35.727,0 c 0,-10.551 4.196,-16.91 15.703,-16.91 9.11,0 13.426,2.762 16.188,4.797 l 0.722,-11.754"
         style="fill:#5087ce;fill-opacity:1;fill-rule:nonzero;stroke:none"
         id="path4305"
         inkscape:connector-curvature="0" />
      <path
         d="m 1026.17,328.801 0,-54.211 c 0,-13.91 4.19,-18.469 13.19,-18.469 8.76,0 13.07,4.559 13.07,18.469 l 0,54.211 15.35,0 0,-54.211 c 0,-22.067 -12.71,-30.703 -28.42,-30.703 -15.83,0 -28.54,8.636 -28.54,30.703 l 0,54.211 15.35,0"
         style="fill:#5087ce;fill-opacity:1;fill-rule:nonzero;stroke:none"
         id="path4307"
         inkscape:connector-curvature="0" />
      <path
         d="m 1082.62,296.656 c 0,3.836 -0.12,7.438 -0.48,10.196 l 13.91,0 c 0.12,-3.122 0.48,-6.36 0.48,-9.481 l 0.24,0 c 2.16,3.723 6.36,10.438 16.43,10.438 14.03,0 18.24,-10.438 18.24,-22.903 l 0,-39.816 -14.88,0 0,37.058 c 0,9.469 -2.4,13.426 -8.52,13.426 -7.79,0 -10.54,-6.594 -10.54,-14.504 l 0,-35.98 -14.88,0 0,51.566"
         style="fill:#5087ce;fill-opacity:1;fill-rule:nonzero;stroke:none"
         id="path4309"
         inkscape:connector-curvature="0" />
      <path
         d="m 1146.27,306.852 14.88,0 0,-61.762 -14.88,0 0,61.762 z m -0.23,26.261 15.35,0 0,-14.633 -15.35,0 0,14.633"
         style="fill:#5087ce;fill-opacity:1;fill-rule:nonzero;stroke:none"
         id="path4311"
         inkscape:connector-curvature="0" />
      <path
         d="m 1181.53,319.563 14.87,4.558 0,-17.269 12.35,0 0,-10.914 -12.35,0 0,-32.02 c 0,-6.598 2.39,-8.52 6.71,-8.52 2.63,0 4.56,0.723 5.64,1.325 l 0,-10.555 c -2.29,-1.078 -5.52,-2.043 -9.96,-2.043 -11.03,0 -17.26,5.039 -17.26,17.992 l 0,33.821 -9.84,0 0,10.914 9.84,0 0,12.711"
         style="fill:#5087ce;fill-opacity:1;fill-rule:nonzero;stroke:none"
         id="path4313"
         inkscape:connector-curvature="0" />
      <path
         d="m 1252.27,281.309 c 0,10.91 -3.61,16.425 -10.33,16.425 -7.78,0 -11.02,-8.277 -11.02,-16.425 l 21.35,0 z m 11.26,-33.223 c -3.11,-1.316 -9.58,-3.961 -18.46,-3.961 -19.91,0 -28.55,14.273 -28.55,30.949 0,18.461 9.72,32.735 25.42,32.735 13.32,0 24.71,-7.793 24.71,-32.981 l 0,-2.875 -35.73,0 c 0,-10.551 4.19,-16.91 15.71,-16.91 9.11,0 13.42,2.762 16.18,4.797 l 0.72,-11.754"
         style="fill:#5087ce;fill-opacity:1;fill-rule:nonzero;stroke:none"
         id="path4315"
         inkscape:connector-curvature="0" />
      <path
         d="m 1302.25,255.043 c 8.75,0 11.74,9.473 11.74,21.109 0,11.989 -3.36,20.743 -11.51,20.743 -8.28,0 -11.15,-8.04 -11.15,-20.387 0,-14.274 2.28,-21.465 10.92,-21.465 z m 26.61,79.992 0,-79.394 c 0,-4.434 0.12,-8.274 0.48,-10.551 l -13.9,0 c -0.24,1.797 -0.48,5.394 -0.48,9.594 l -0.37,0 c -2.39,-5.282 -6.83,-10.559 -16.43,-10.559 -15.35,0 -21.7,14.637 -21.7,31.789 0,20.141 8.03,31.895 21.35,31.895 8.87,0 13.79,-5.036 15.95,-9.836 l 0.23,0 0,37.062 14.87,0"
         style="fill:#5087ce;fill-opacity:1;fill-rule:nonzero;stroke:none"
         id="path4317"
         inkscape:connector-curvature="0" />
      <path
         d="m 1375.72,328.801 18.23,0 27.82,-65.727 0.25,0 0,65.727 13.9,0 0,-83.711 -18.34,0 -27.71,65.238 -0.24,0 0,-65.238 -13.91,0 0,83.711"
         style="fill:#5087ce;fill-opacity:1;fill-rule:nonzero;stroke:none"
         id="path4319"
         inkscape:connector-curvature="0" />
      <path
         d="m 1483.62,275.313 -1.32,0 c -12.71,0 -20.27,-2.641 -20.27,-11.637 0,-5.633 3.72,-9.473 9.48,-9.473 8.88,0 12.11,6.598 12.11,17.629 l 0,3.481 z m -29.26,27.941 c 4.2,1.918 10.07,4.555 19.55,4.555 19.19,0 23.63,-9.356 23.63,-24.821 l 0,-26.988 c 0,-4.437 0.48,-8.516 0.83,-10.91 l -13.42,0 c -0.73,2.394 -0.85,5.394 -0.85,8.39 l -0.24,0 c -3.72,-5.035 -8.39,-9.355 -17.27,-9.355 -9.6,0 -18.46,6.598 -18.46,18.109 0,16.793 13.67,20.993 32.49,20.993 l 3,0 0,2.281 c 0,6.109 -3,11.75 -11.51,11.75 -7.44,0 -14.04,-3.602 -16.91,-5.996 l -0.84,11.992"
         style="fill:#5087ce;fill-opacity:1;fill-rule:nonzero;stroke:none"
         id="path4321"
         inkscape:connector-curvature="0" />
      <path
         d="m 1516.82,319.563 14.87,4.558 0,-17.269 12.35,0 0,-10.914 -12.35,0 0,-32.02 c 0,-6.598 2.39,-8.52 6.71,-8.52 2.64,0 4.56,0.723 5.64,1.325 l 0,-10.555 c -2.28,-1.078 -5.52,-2.043 -9.96,-2.043 -11.03,0 -17.26,5.039 -17.26,17.992 l 0,33.821 -9.83,0 0,10.914 9.83,0 0,12.711"
         style="fill:#5087ce;fill-opacity:1;fill-rule:nonzero;stroke:none"
         id="path4323"
         inkscape:connector-curvature="0" />
      <path
         d="m 1554.93,306.852 14.87,0 0,-61.762 -14.87,0 0,61.762 z m -0.23,26.261 15.35,0 0,-14.633 -15.35,0 0,14.633"
         style="fill:#5087ce;fill-opacity:1;fill-rule:nonzero;stroke:none"
         id="path4325"
         inkscape:connector-curvature="0" />
      <path
         d="m 1610.21,254.684 c 9.59,0 11.75,11.035 11.75,21.347 0,10.313 -2.16,21.227 -11.75,21.227 -9.59,0 -11.88,-10.914 -11.88,-21.227 0,-10.312 2.29,-21.347 11.88,-21.347 z m 0,53.125 c 12.59,0 27.1,-6.598 27.1,-31.778 0,-25.902 -14.51,-31.906 -27.1,-31.906 -12.6,0 -27.23,6.004 -27.23,31.906 0,25.18 14.63,31.778 27.23,31.778"
         style="fill:#5087ce;fill-opacity:1;fill-rule:nonzero;stroke:none"
         id="path4327"
         inkscape:connector-curvature="0" />
      <path
         d="m 1649.04,296.656 c 0,3.836 -0.12,7.438 -0.48,10.196 l 13.91,0 c 0.12,-3.122 0.47,-6.36 0.47,-9.481 l 0.25,0 c 2.16,3.723 6.35,10.438 16.43,10.438 14.03,0 18.23,-10.438 18.23,-22.903 l 0,-39.816 -14.87,0 0,37.058 c 0,9.469 -2.4,13.426 -8.52,13.426 -7.79,0 -10.55,-6.594 -10.55,-14.504 l 0,-35.98 -14.87,0 0,51.566"
         style="fill:#5087ce;fill-opacity:1;fill-rule:nonzero;stroke:none"
         id="path4329"
         inkscape:connector-curvature="0" />
      <path
         d="m 1709.58,259.477 c 2.39,-0.957 8.51,-4.079 15.47,-4.079 5.39,0 9.59,1.325 9.59,6.122 0,2.398 -1.2,4.675 -6.6,7.796 l -6.12,3.598 c -6.23,3.719 -13.07,7.676 -13.07,17.383 0,8.516 8.28,17.512 21.35,17.512 7.92,0 14.04,-2.039 15.47,-2.52 l -0.84,-11.516 c -3.72,1.442 -7.68,2.758 -13.07,2.758 -6,0 -8.51,-2.273 -8.51,-5.996 0,-3.351 2.63,-5.148 6.95,-7.906 l 7.32,-4.68 c 7.68,-4.918 11.51,-8.394 11.51,-15.59 0,-11.39 -9.6,-18.234 -23.02,-18.234 -7.68,0 -14.04,1.805 -17.16,3.004 l 0.73,12.348"
         style="fill:#5087ce;fill-opacity:1;fill-rule:nonzero;stroke:none"
         id="path4331"
         inkscape:connector-curvature="0" />
      <path
         d="m 522.395,354.496 5.402,-2.808 -0.535,-0.633 c -1.766,-2.133 -2.551,-3.239 -3.379,-5.641 -0.41,-1.098 -0.91,-3.191 -0.082,-4.777 0.398,-0.836 1.121,-1.449 2.152,-1.774 2.406,-0.816 4.477,1.278 6.856,3.703 3.328,3.379 7.449,7.555 14.117,5.317 6.765,-2.301 9.066,-8.328 6.265,-16.535 -0.847,-2.504 -2.398,-4.637 -3.828,-6.618 l -0.332,-0.421 -5.59,2.601 0.563,0.653 c 0.664,0.792 3,3.523 3.871,6.23 0.852,2.379 0.77,6.41 -2.855,7.633 -3,1.039 -5.258,-1.285 -7.887,-3.988 -3.192,-3.36 -6.856,-7.149 -12.895,-5.09 -2.652,0.894 -4.636,2.586 -5.758,4.824 -1.363,2.75 -1.41,6.25 -0.14,9.914 0.801,2.465 2.168,5.008 3.738,6.98 l 0.317,0.43 z m -13.665,-30.254 31.528,-18.281 -3.207,-5.535 -31.696,18.34 3.375,5.476 z m -12.441,-18.121 27.223,-24.285 -4.903,-5.742 c 0,0 -25.523,7.453 -29.394,8.492 2.875,-2.75 18.711,-19.445 18.711,-19.445 l -4.781,-4.317 -25.649,26.063 6.024,5.394 c 0,0 24.628,-7.347 28.5,-8.371 -2.875,2.731 -19.872,17.352 -19.872,17.352 l 4.141,4.859 z m -32.086,-55.738 c 0.934,0.445 3.356,1.769 5.762,3.215 2.148,1.304 3.867,2.382 4.738,3.074 -1.265,0.957 -11.015,8.367 -13.039,9.933 0.41,-2.542 2.289,-14.636 2.539,-16.222 z m -3.578,24.226 31.215,-22.867 -5.547,-3.906 c 0,0 -6.27,4.766 -6.895,5.23 -0.371,-0.199 -3.582,-2.48 -7.054,-4.535 -3.274,-1.976 -6.813,-3.726 -7.168,-3.929 0.152,-0.817 1.371,-8.473 1.371,-8.473 l -5.961,-2.848 -5.238,38.274 5.277,3.054 z m -34.832,-21.64 c 0.305,-1.059 2.957,-9.531 3.27,-10.567 1.32,0.387 4.199,1.305 4.199,1.305 0.953,0.281 3.207,1.176 4.281,3.231 0.352,0.675 0.539,1.425 0.539,2.203 0,0.589 -0.121,1.203 -0.309,1.851 -0.41,1.242 -1.164,2.196 -2.3,2.785 -1.942,1.043 -4.551,0.778 -6.192,0.289 0,0 -2.601,-0.812 -3.488,-1.097 z m 13.367,6.535 c 2.363,-1.242 4.078,-3.445 5.012,-6.559 0.414,-1.324 0.641,-2.586 0.641,-3.804 0,-5.032 -3.52,-8.981 -9.875,-10.977 0,0 -3.208,-0.996 -4.161,-1.277 0.375,-1.145 4.161,-13.336 4.161,-13.336 l -6.317,-1.633 -10.699,34.676 9.562,2.972 c 4.782,1.485 8.754,1.465 11.676,-0.062 z m -113.707,7.242 c 0,0 5.84,-2.906 14.121,-5.734 5.653,-1.957 10.449,-3.485 15.153,-4.524 l -1.641,-5.476 c 0,0 -4.488,0.797 -11.793,3.035 -0.418,-1.199 -9.914,-28.34 -9.914,-28.34 l -6.508,2.258 c 0,0 9.465,27.18 9.875,28.363 -6.812,2.543 -11.543,5.067 -11.543,5.067 l 2.25,5.351 z m -38.73,-2.156 c 0.644,-0.547 2.984,-2.442 5.406,-4.168 2.461,-1.715 4.926,-3.344 5.648,-3.668 0.352,1.586 2.875,14.109 3.395,16.43 -2.047,-1.219 -12.996,-7.735 -14.449,-8.594 z m 15.965,16.168 5.46,-3.91 -7.078,-38.075 -6.269,3.606 c 0,0 1.57,7.758 1.758,8.512 -0.309,0.242 -3.957,2.425 -7.496,4.925 -3.598,2.567 -7.098,5.457 -7.43,5.684 -0.68,-0.41 -7.613,-4.504 -7.613,-4.504 l -5.364,4.582 33.68,18.973 0.352,0.207 z m -25.586,24.207 4.386,-5.297 -27.609,-23.086 -4.477,5.293 27.368,22.867 0.332,0.223 z m -19.954,32.371 c 0,0 2.793,-5.945 5.071,-10.156 2.254,-4.219 5.34,-9.309 5.34,-9.309 l -4.993,-2.91 c 0,0 -3.789,6.309 -7.261,13.598 -0.953,-0.489 -6.938,-3.602 -7.926,-4.09 0.574,-1.063 6.703,-12.867 6.703,-12.867 l -5.055,-2.911 c 0,0 -6.211,12.071 -6.742,13.09 -1.078,-0.531 -13.972,-7.187 -13.972,-7.187 l -3.086,6.129 31.57,16.429 0.351,0.184 z m 318.45,55.844 c 0,56.453 -24.883,107.168 -64.196,141.879 L 435.641,342.543 c 5.035,-31.449 -4.289,-56.699 -26.911,-64.188 -14.652,-4.863 -15.464,-12.277 -15.464,-34.222 0,-1.184 0,1.648 0,-2.629 0,-15.598 1.183,-28.91 2.257,-37.195 100.086,4.722 180.075,87.625 180.075,188.871 z m -188.414,5.312 0.886,7.168 c 3.668,16.653 15.754,14.574 24.141,30.922 0.039,0.063 0.144,0.25 0.144,0.25 0.247,0.609 41.336,88.766 58.481,125.57 -25.402,12.703 -54.035,19.895 -84.336,19.895 -30.285,0 -58.937,-7.192 -84.355,-19.895 17.14,-36.804 58.21,-124.961 58.543,-125.57 0,0 0.078,-0.187 0.125,-0.25 8.343,-16.348 20.41,-14.269 24.074,-30.922 l 0.89,-7.168 1.407,0 z m -0.805,-22.336 c -12.774,2.852 -28.691,15.539 -30.766,31.867 -0.746,6.207 -1.343,7.938 -0.433,20.274 l -58.086,131.476 c -4.672,-2.523 -9.235,-5.253 -13.699,-8.164 17.367,-39.027 70.46,-158.246 70.5,-158.39 8.406,-17.692 23.148,-18.039 28.234,-28.586 3.066,-6.25 3.34,-11.844 3.379,-12.293 l 1.941,0 c 0.039,0.449 0.356,6.043 3.375,12.293 5.114,10.547 19.856,10.894 28.239,28.586 0.039,0.144 53.156,119.363 70.503,158.39 -4.41,2.911 -9.007,5.641 -13.707,8.164 L 417.844,428.297 c 0.906,-12.336 0.304,-14.067 -0.5,-20.274 -2.071,-16.328 -17.992,-29.015 -30.699,-31.867 l -0.266,0 z m 0.039,-49.105 c -30.117,7.027 -41.301,34.469 -41.301,58.84 L 278.84,548.559 c -4.328,-2.993 -8.527,-6.192 -12.59,-9.504 14.578,-34.551 80.004,-189.813 80.094,-190.035 11.57,-27.891 32.64,-18.649 37.734,-41.676 1.219,-5.574 1.305,-8.02 1.305,-8.02 l 2.254,0 c 0,0 0.043,2.446 1.304,8.02 5.09,23.027 26.102,13.785 37.696,41.676 0.082,0.222 65.511,155.484 80.066,190.035 -4.058,3.312 -8.234,6.511 -12.586,9.504 L 427.859,385.891 c 0,-24.371 -11.199,-51.813 -41.32,-58.84 l -0.121,0 z m -8.984,-122.742 c 1.136,8.285 2.254,21.597 2.254,37.195 0,4.277 0,1.445 0,2.629 0,21.945 -0.805,29.359 -15.458,34.222 -22.628,7.489 -31.882,32.739 -26.917,64.188 l -75.696,192.516 c -39.371,-34.711 -64.211,-85.426 -64.211,-141.879 0,-101.246 80.004,-184.149 180.028,-188.871 z m 127.8,219.894 c 0,16.449 4.036,29.828 15.668,29.828 11.676,0 15.879,-13.379 15.879,-29.828 0,-16.449 -4.203,-29.844 -15.879,-29.844 -11.632,0 -15.668,13.395 -15.668,29.844 z m -20.66,0 c 0,-25.18 11.676,-44.32 36.328,-44.32 24.719,0 36.52,19.14 36.52,44.32 0,25.188 -11.801,44.32 -36.52,44.32 -24.652,0 -36.328,-19.132 -36.328,-44.32 z m -89.812,83.902 -17.824,0 8.3,37.278 1.364,0 8.16,-37.278 z m 8.504,-33.671 20.457,0 -23.774,85.707 -26.14,0 -24.633,-85.707 18.937,0 5.446,19.156 24.8,0 4.907,-19.156 z m -177.668,-93.082 19.398,0 0,35.832 32.582,0 0,15.004 -32.582,0 0,19.914 33.656,0 0,14.961 -53.054,0 0,-85.711 z m 160.09,95.664 c 0.273,0 17.273,-18.2 17.273,-32.778 0,-15.777 -12.301,-19.547 -16.461,-19.547 -0.211,0 -0.461,0.028 -0.723,0.043 l -0.168,0 c -0.265,-0.015 -0.543,-0.043 -0.722,-0.043 -4.141,0 -16.457,3.77 -16.457,19.547 0,14.578 16.953,32.778 17.258,32.778 z M 386.5,180.59 c -117.223,0 -212.609,95.363 -212.609,212.59 0,117.226 95.386,212.605 212.609,212.605 117.223,0 212.586,-95.379 212.586,-212.605 0,-117.227 -95.363,-212.59 -212.586,-212.59"
         style="fill:#5087ce;fill-opacity:1;fill-rule:nonzero;stroke:none"
         id="path4333"
         inkscape:connector-curvature="0" />
    </g>
    <text
       xml:space="preserve"
       style="font-style:normal;font-variant:normal;font-weight:normal;font-stretch:normal;font-size:40px;line-height:125%;font-family:'PT Sans';-inkscape-font-specification:'PT Sans';text-align:start;letter-spacing:0px;word-spacing:0px;writing-mode:lr-tb;text-anchor:start;fill:#5087ce;fill-opacity:1;stroke:none;stroke-width:1px;stroke-linecap:butt;stroke-linejoin:miter;stroke-opacity:1"
       x="27.857143"
       y="1020.2193"
       id="text4455"
       sodipodi:linespacing="125%"><tspan
         sodipodi:role="line"
         id="tspan4457"
         x="27.857143"
         y="1020.2193" /></text>
  </g>
</svg>
